<svg width="20" height="20" viewBox="0 0 20 20" fill="none" xmlns="http://www.w3.org/2000/svg">
<path d="M6.24998 9.16663C6.69201 9.16663 7.11593 8.99103 7.42849 8.67847C7.74105 8.36591 7.91665 7.94199 7.91665 7.49996C7.91665 7.05793 7.74105 6.63401 7.42849 6.32145C7.11593 6.00889 6.69201 5.83329 6.24998 5.83329H2.49998V9.16663H6.24998ZM7.08331 10.8333H2.49998V14.1666H7.08331C7.52534 14.1666 7.94926 13.991 8.26182 13.6785C8.57438 13.3659 8.74998 12.942 8.74998 12.5C8.74998 12.0579 8.57438 11.634 8.26182 11.3214C7.94926 11.0089 7.52534 10.8333 7.08331 10.8333ZM8.80248 9.64329C9.42709 10.0189 9.91139 10.5888 10.1812 11.2659C10.4511 11.9429 10.4916 12.6897 10.2965 13.392C10.1015 14.0942 9.68166 14.7132 9.10133 15.1541C8.52099 15.595 7.81214 15.8336 7.08331 15.8333H0.833313V4.16663H6.24998C6.88454 4.1667 7.5059 4.3479 8.04103 4.68893C8.57616 5.02997 9.00283 5.51666 9.2709 6.09183C9.53896 6.66699 9.63728 7.30672 9.5543 7.93583C9.47133 8.56494 9.2105 9.1573 8.80248 9.64329ZM12.9166 4.99996H17.5V6.24996H12.9166V4.99996ZM19.1666 12.0833H12.9166V12.2916C12.9165 12.8064 13.0896 13.3063 13.4082 13.7106C13.7267 14.115 14.1722 14.4003 14.6727 14.5207C15.1732 14.641 15.6997 14.5893 16.1672 14.3739C16.6348 14.1585 17.0162 13.7919 17.25 13.3333H19.0283C18.7744 14.2569 18.1944 15.0571 17.3957 15.5858C16.597 16.1144 15.6337 16.3357 14.6843 16.2086C13.735 16.0814 12.8639 15.6145 12.2324 14.8943C11.601 14.1741 11.2519 13.2495 11.25 12.2916V11.0416C11.25 9.99181 11.667 8.98499 12.4093 8.24266C13.1517 7.50033 14.1585 7.08329 15.2083 7.08329C16.2581 7.08329 17.2649 7.50033 18.0073 8.24266C18.7496 8.98499 19.1666 9.99181 19.1666 11.0416V12.0833ZM17.4133 10.4166C17.2769 9.93703 16.9878 9.515 16.5899 9.21451C16.192 8.91402 15.7069 8.75145 15.2083 8.75145C14.7097 8.75145 14.2247 8.91402 13.8268 9.21451C13.4288 9.515 13.1398 9.93703 13.0033 10.4166H17.4133Z" fill="#041516"/>
</svg>
