<svg width="20" height="20" viewBox="0 0 20 20" fill="none" xmlns="http://www.w3.org/2000/svg">
<g clip-path="url(#clip0_95_1943)">
<path d="M11.595 12.15C11.4614 12.1825 11.3269 12.2114 11.1917 12.2366C10.4578 12.3748 9.70443 12.3719 8.97167 12.2283C8.84333 12.2033 8.66167 12.1591 8.4275 12.0966L7.66 13.0941C5.76583 13.0333 5.04583 11.7641 5.04583 11.7641C5.04583 8.94663 6.28 6.66246 6.28 6.66246C7.51417 5.71829 8.68833 5.74413 8.68833 5.74413L9.02417 6.18163C9.05512 6.17729 9.08627 6.17451 9.1175 6.17329C9.75767 6.08844 10.4064 6.09124 11.0458 6.18163L11.4142 5.74413C11.4142 5.74413 12.5892 5.71829 13.8225 6.66329C13.8225 6.66329 15.0575 8.94663 15.0575 11.7641C15.0575 11.7641 14.3283 13.0325 12.4342 13.0941L11.595 12.1491V12.15ZM8.39667 9.16663C7.89583 9.16663 7.5 9.54163 7.5 9.99996C7.5 10.4583 7.90417 10.8333 8.39667 10.8333C8.89667 10.8333 9.2925 10.4583 9.2925 9.99996C9.30083 9.54163 8.8975 9.16663 8.39667 9.16663ZM11.6033 9.16663C11.1033 9.16663 10.7075 9.54163 10.7075 9.99996C10.7075 10.4583 11.1117 10.8333 11.6033 10.8333C12.1042 10.8333 12.5 10.4583 12.5 9.99996C12.5 9.54163 12.1042 9.16663 11.6033 9.16663ZM17.5 19.1666L13.3417 15H15.8333V3.33329H4.16667V15H13.3358L13.8108 16.6666H4.16667C3.72464 16.6666 3.30072 16.491 2.98816 16.1785C2.67559 15.8659 2.5 15.442 2.5 15V3.33329C2.5 2.89127 2.67559 2.46734 2.98816 2.15478C3.30072 1.84222 3.72464 1.66663 4.16667 1.66663H15.8333C16.2754 1.66663 16.6993 1.84222 17.0118 2.15478C17.3244 2.46734 17.5 2.89127 17.5 3.33329V19.1666Z" fill="#041516"/>
</g>
<defs>
<clipPath id="clip0_95_1943">
<rect width="20" height="20" fill="white"/>
</clipPath>
</defs>
</svg>
