<svg width="20" height="20" viewBox="0 0 20 20" fill="none" xmlns="http://www.w3.org/2000/svg">
<path d="M10.8334 16.615C12.5144 16.4011 14.051 15.5551 15.1307 14.2489C16.2104 12.9428 16.7523 11.2746 16.6462 9.58327C16.5401 7.89197 15.7939 6.30453 14.5594 5.14361C13.3249 3.98269 11.6946 3.33539 10 3.33329C8.30332 3.33203 6.66998 3.97774 5.4328 5.13886C4.19563 6.29997 3.44772 7.88912 3.34147 9.58249C3.23523 11.2759 3.77863 12.946 4.86097 14.2527C5.94331 15.5593 7.48314 16.4041 9.16669 16.615V11.6666H7.50002V9.99996H9.16669V8.62163C9.16669 7.50746 9.28335 7.10329 9.50002 6.69579C9.71345 6.29261 10.0433 5.96303 10.4467 5.74996C10.765 5.57913 11.1609 5.47663 11.8525 5.43246C12.1267 5.41496 12.4817 5.43663 12.9175 5.49913V7.08246H12.5C11.7359 7.08246 11.42 7.11829 11.2317 7.21913C11.1193 7.27692 11.0278 7.36842 10.97 7.48079C10.87 7.66913 10.8334 7.85579 10.8334 8.62079V9.99996H12.9167L12.5 11.6666H10.8334V16.615ZM10 18.3333C5.39752 18.3333 1.66669 14.6025 1.66669 9.99996C1.66669 5.39746 5.39752 1.66663 10 1.66663C14.6025 1.66663 18.3334 5.39746 18.3334 9.99996C18.3334 14.6025 14.6025 18.3333 10 18.3333Z" fill="#041516"/>
</svg>
