<svg width="20" height="20" viewBox="0 0 20 20" fill="none" xmlns="http://www.w3.org/2000/svg">
<g clip-path="url(#clip0_95_1946)">
<path d="M10 1.66663C5.39586 1.66663 1.66669 5.39579 1.66669 9.99996C1.66574 11.7494 2.2157 13.4546 3.23853 14.8739C4.26137 16.2931 5.70514 17.3542 7.36502 17.9066C7.78169 17.9791 7.93752 17.7291 7.93752 17.51C7.93752 17.3125 7.92669 16.6566 7.92669 15.9583C5.83335 16.3441 5.29169 15.4483 5.12502 14.9791C5.03085 14.7391 4.62502 14 4.27085 13.8016C3.97919 13.6458 3.56252 13.26 4.26002 13.25C4.91669 13.2391 5.38502 13.8541 5.54169 14.1041C6.29169 15.3641 7.49002 15.01 7.96836 14.7916C8.04169 14.25 8.26002 13.8858 8.50002 13.6775C6.64585 13.4691 4.70835 12.75 4.70835 9.56246C4.70835 8.65579 5.03085 7.90663 5.56252 7.32246C5.47919 7.11413 5.18752 6.25996 5.64585 5.11413C5.64585 5.11413 6.34335 4.89579 7.93752 5.96913C8.61591 5.78084 9.31683 5.68608 10.0209 5.68746C10.7292 5.68746 11.4375 5.78079 12.1042 5.96829C13.6975 4.88496 14.3959 5.11496 14.3959 5.11496C14.8542 6.26079 14.5625 7.11496 14.4792 7.32329C15.01 7.90663 15.3334 8.64579 15.3334 9.56246C15.3334 12.7608 13.3859 13.4691 11.5317 13.6775C11.8334 13.9375 12.0942 14.4375 12.0942 15.2191C12.0942 16.3333 12.0834 17.2291 12.0834 17.5108C12.0834 17.7291 12.24 17.9891 12.6567 17.9058C14.3109 17.3473 15.7483 16.2841 16.7666 14.8659C17.7849 13.4477 18.3329 11.7459 18.3334 9.99996C18.3334 5.39579 14.6042 1.66663 10 1.66663Z" fill="#041516"/>
</g>
<defs>
<clipPath id="clip0_95_1946">
<rect width="20" height="20" fill="white"/>
</clipPath>
</defs>
</svg>
