<svg width="20" height="20" viewBox="0 0 20 20" fill="none" xmlns="http://www.w3.org/2000/svg">
<path d="M10 1.66663C12.2642 1.66663 12.5467 1.67496 13.435 1.71663C14.3225 1.75829 14.9267 1.89746 15.4584 2.10413C16.0084 2.31579 16.4717 2.60246 16.935 3.06496C17.3588 3.48154 17.6866 3.98545 17.8959 4.54163C18.1017 5.07246 18.2417 5.67746 18.2834 6.56496C18.3225 7.45329 18.3334 7.73579 18.3334 9.99996C18.3334 12.2641 18.325 12.5466 18.2834 13.435C18.2417 14.3225 18.1017 14.9266 17.8959 15.4583C17.6873 16.0148 17.3593 16.5188 16.935 16.935C16.5183 17.3586 16.0144 17.6864 15.4584 17.8958C14.9275 18.1016 14.3225 18.2416 13.435 18.2833C12.5467 18.3225 12.2642 18.3333 10 18.3333C7.73585 18.3333 7.45335 18.325 6.56502 18.2833C5.67752 18.2416 5.07335 18.1016 4.54169 17.8958C3.98529 17.687 3.48129 17.3591 3.06502 16.935C2.64119 16.5184 2.3133 16.0145 2.10419 15.4583C1.89752 14.9275 1.75835 14.3225 1.71669 13.435C1.67752 12.5466 1.66669 12.2641 1.66669 9.99996C1.66669 7.73579 1.67502 7.45329 1.71669 6.56496C1.75835 5.67663 1.89752 5.07329 2.10419 4.54163C2.31272 3.98511 2.64069 3.48106 3.06502 3.06496C3.48141 2.64099 3.98538 2.31307 4.54169 2.10413C5.07335 1.89746 5.67669 1.75829 6.56502 1.71663C7.45335 1.67746 7.73585 1.66663 10 1.66663ZM10 5.83329C8.89495 5.83329 7.83514 6.27228 7.05374 7.05368C6.27234 7.83508 5.83335 8.89489 5.83335 9.99996C5.83335 11.105 6.27234 12.1648 7.05374 12.9462C7.83514 13.7276 8.89495 14.1666 10 14.1666C11.1051 14.1666 12.1649 13.7276 12.9463 12.9462C13.7277 12.1648 14.1667 11.105 14.1667 9.99996C14.1667 8.89489 13.7277 7.83508 12.9463 7.05368C12.1649 6.27228 11.1051 5.83329 10 5.83329ZM15.4167 5.62496C15.4167 5.34869 15.3069 5.08374 15.1116 4.88839C14.9162 4.69304 14.6513 4.58329 14.375 4.58329C14.0988 4.58329 13.8338 4.69304 13.6385 4.88839C13.4431 5.08374 13.3334 5.34869 13.3334 5.62496C13.3334 5.90123 13.4431 6.16618 13.6385 6.36153C13.8338 6.55688 14.0988 6.66663 14.375 6.66663C14.6513 6.66663 14.9162 6.55688 15.1116 6.36153C15.3069 6.16618 15.4167 5.90123 15.4167 5.62496ZM10 7.49996C10.6631 7.49996 11.2989 7.76335 11.7678 8.23219C12.2366 8.70103 12.5 9.33692 12.5 9.99996C12.5 10.663 12.2366 11.2989 11.7678 11.7677C11.2989 12.2366 10.6631 12.5 10 12.5C9.33698 12.5 8.70109 12.2366 8.23225 11.7677C7.76341 11.2989 7.50002 10.663 7.50002 9.99996C7.50002 9.33692 7.76341 8.70103 8.23225 8.23219C8.70109 7.76335 9.33698 7.49996 10 7.49996Z" fill="#041516"/>
</svg>
