<svg width="20" height="20" viewBox="0 0 20 20" fill="none" xmlns="http://www.w3.org/2000/svg">
<path d="M10 18.3333C5.39752 18.3333 1.66669 14.6025 1.66669 9.99996C1.66669 5.39746 5.39752 1.66663 10 1.66663C14.6025 1.66663 18.3334 5.39746 18.3334 9.99996C18.3334 14.6025 14.6025 18.3333 10 18.3333ZM15.5584 9.99996C15.5498 9.76539 15.4735 9.53831 15.3388 9.3461C15.2041 9.15389 15.0166 9.00475 14.7991 8.91666C14.5815 8.82858 14.3431 8.80531 14.1126 8.84966C13.8821 8.89401 13.6694 9.00409 13.5 9.16663C12.552 8.52222 11.4377 8.16621 10.2917 8.14163L10.8334 5.54163L12.6167 5.91663C12.6379 6.11369 12.7286 6.29675 12.8726 6.43295C13.0166 6.56914 13.2045 6.64954 13.4024 6.65973C13.6004 6.66991 13.7955 6.60921 13.9527 6.48851C14.1099 6.36782 14.219 6.19504 14.2603 6.00119C14.3016 5.80734 14.2724 5.6051 14.1781 5.4308C14.0837 5.25649 13.9304 5.12152 13.7455 5.05011C13.5606 4.97871 13.3563 4.97555 13.1692 5.04119C12.9822 5.10684 12.8247 5.23699 12.725 5.40829L10.6834 4.99996C10.65 4.99263 10.6155 4.99201 10.5818 4.99812C10.5482 5.00423 10.5161 5.01696 10.4874 5.03556C10.4587 5.05416 10.434 5.07827 10.4147 5.10649C10.3954 5.13471 10.3819 5.16648 10.375 5.19996L9.75835 8.09163C8.59826 8.10912 7.46858 8.4654 6.50835 9.11663C6.37989 8.99575 6.22668 8.90426 6.05934 8.84848C5.89199 8.79271 5.71453 8.77399 5.53923 8.79362C5.36394 8.81325 5.19501 8.87076 5.04415 8.96216C4.89329 9.05357 4.76411 9.17668 4.66556 9.32298C4.56701 9.46927 4.50145 9.63524 4.47342 9.80939C4.44539 9.98354 4.45556 10.1617 4.50323 10.3315C4.5509 10.5014 4.63493 10.6588 4.74949 10.7929C4.86405 10.927 5.0064 11.0347 5.16669 11.1083C5.1573 11.2303 5.1573 11.3529 5.16669 11.475C5.16669 13.3416 7.34169 14.8583 10.025 14.8583C12.7084 14.8583 14.8834 13.3416 14.8834 11.475C14.8927 11.3529 14.8927 11.2303 14.8834 11.1083C15.089 11.0061 15.2615 10.8478 15.381 10.6516C15.5004 10.4555 15.5619 10.2296 15.5584 9.99996ZM7.22502 10.8333C7.22502 10.6123 7.31282 10.4003 7.4691 10.244C7.62538 10.0878 7.83734 9.99996 8.05835 9.99996C8.27937 9.99996 8.49133 10.0878 8.64761 10.244C8.80389 10.4003 8.89169 10.6123 8.89169 10.8333C8.89169 11.0543 8.80389 11.2663 8.64761 11.4225C8.49133 11.5788 8.27937 11.6666 8.05835 11.6666C7.83734 11.6666 7.62538 11.5788 7.4691 11.4225C7.31282 11.2663 7.22502 11.0543 7.22502 10.8333ZM12.0667 13.125C11.4755 13.5705 10.748 13.7973 10.0084 13.7666C9.26868 13.7973 8.54125 13.5705 7.95002 13.125C7.91458 13.0818 7.89648 13.027 7.89922 12.9712C7.90196 12.9154 7.92535 12.8626 7.96485 12.8231C8.00434 12.7836 8.05712 12.7602 8.11291 12.7575C8.1687 12.7547 8.22351 12.7729 8.26669 12.8083C8.76771 13.1758 9.37929 13.361 10 13.3333C10.6215 13.3671 11.2359 13.1878 11.7417 12.825C11.763 12.8011 11.789 12.7819 11.8181 12.7685C11.8471 12.7551 11.8786 12.7478 11.9106 12.7471C11.9426 12.7464 11.9744 12.7523 12.004 12.7644C12.0337 12.7765 12.0605 12.7946 12.0828 12.8175C12.1051 12.8404 12.1225 12.8676 12.1339 12.8976C12.1452 12.9275 12.1503 12.9594 12.1488 12.9914C12.1473 13.0234 12.1392 13.0547 12.1251 13.0834C12.111 13.1121 12.0911 13.1376 12.0667 13.1583V13.125ZM11.9167 11.7C11.7519 11.7 11.5908 11.6511 11.4537 11.5595C11.3167 11.4679 11.2099 11.3378 11.1468 11.1855C11.0837 11.0333 11.0672 10.8657 11.0994 10.7041C11.1315 10.5424 11.2109 10.3939 11.3274 10.2774C11.444 10.1608 11.5925 10.0815 11.7541 10.0493C11.9158 10.0172 12.0833 10.0337 12.2356 10.0967C12.3879 10.1598 12.518 10.2666 12.6096 10.4037C12.7011 10.5407 12.75 10.7018 12.75 10.8666C12.7545 10.9795 12.7361 11.0922 12.6957 11.1977C12.6553 11.3033 12.5939 11.3995 12.5152 11.4806C12.4364 11.5616 12.3421 11.6259 12.2377 11.6693C12.1334 11.7127 12.0214 11.7345 11.9084 11.7333L11.9167 11.7Z" fill="#041516"/>
</svg>
