<svg width="20" height="20" viewBox="0 0 20 20" fill="none" xmlns="http://www.w3.org/2000/svg">
<path d="M12.83 8.81667L12.8467 8.60917C12.8929 7.96409 12.916 7.31756 12.9158 6.67083C12.9158 5.94583 12.6708 5.4325 12.1542 4.95167C11.6042 4.44 10.9383 4.16667 9.99582 4.16667C9.04832 4.16667 8.36416 4.44583 7.90416 4.90667C7.32416 5.48583 7.10582 5.92167 7.10582 6.65667C7.10582 7.09083 7.15666 8.31833 7.18582 8.83833C7.20955 9.2634 7.06971 9.68143 6.79499 10.0067C6.84082 10.0883 6.88249 10.1767 6.92249 10.2708C7.17249 10.9133 7.08749 11.5567 6.79582 12.1633C6.46916 12.845 6.18666 13.3242 5.62082 13.9583C5.45282 14.147 5.2742 14.3259 5.08582 14.4942C5.22704 14.6297 5.34327 14.7891 5.42916 14.965C5.8702 14.9258 6.31451 14.9466 6.74999 15.0267C7.42499 15.1483 7.85332 15.3883 8.57832 15.9108L8.59166 15.92L8.76916 16.0467C9.28499 16.4133 9.49999 16.5017 9.99666 16.5017C10.5042 16.5017 10.755 16.4008 11.2658 16.0417L11.4383 15.92C12.1683 15.3933 12.6108 15.1467 13.2975 15.0233C13.7266 14.952 14.1627 14.9313 14.5967 14.9617C14.6836 14.7849 14.8013 14.6249 14.9442 14.4892C14.7643 14.327 14.5929 14.1557 14.4308 13.9758C13.946 13.4357 13.54 12.8297 13.225 12.1758C12.9225 11.5517 12.8333 10.8925 13.1108 10.2417C13.1442 10.16 13.1817 10.0833 13.2208 10.0117C12.9393 9.67942 12.799 9.2502 12.83 8.81583V8.81667ZM4.23416 8.73167C4.58332 8.73167 4.73416 8.98583 5.24999 8.98583C5.38082 8.98583 5.46666 8.95667 5.52166 8.93083C5.51416 8.80083 5.43916 7.27583 5.43916 6.65667C5.43916 5.25 6.03916 4.415 6.72499 3.72833C7.41082 3.04167 8.47916 2.5 9.99666 2.5C11.5133 2.5 12.5517 3.04417 13.29 3.73167C14.0283 4.41917 14.5825 5.34 14.5825 6.67167C14.5825 7.9675 14.5 8.83333 14.4925 8.935C14.5644 8.97188 14.6442 8.99049 14.725 8.98917C15.25 8.98917 15.25 8.73083 15.8333 8.73083C16.4042 8.73083 16.6525 9.20583 16.6525 9.41667C16.6525 9.93417 15.9583 10.2225 15.5442 10.355C15.2367 10.4525 14.7683 10.5975 14.6483 10.8842C14.5867 11.0292 14.6125 11.2175 14.725 11.4492C14.7275 11.4558 15.775 13.8517 18 14.2208C18.1958 14.25 18.3258 14.4217 18.3258 14.6233C18.3258 14.9 18.0175 15.1375 17.7208 15.275C17.3517 15.4417 16.8117 15.5833 16.0942 15.6958C16.0583 15.7608 15.9825 16.1 15.8983 16.435C15.7858 16.8867 15.2308 16.74 15.0725 16.7067C14.5801 16.603 14.073 16.5895 13.5758 16.6667C13.1742 16.7392 12.815 16.9817 12.4133 17.2717C11.8192 17.6917 11.1925 18.1683 9.99666 18.1683C8.79999 18.1683 8.20999 17.6917 7.61582 17.2717C7.21416 16.9817 6.86166 16.7408 6.45249 16.6667C5.70416 16.5308 5.14416 16.6967 4.95666 16.7142C4.76832 16.7308 4.25499 16.9175 4.12666 16.4417C4.08916 16.3033 3.96749 15.7683 3.93082 15.6958C3.21749 15.5833 2.67416 15.435 2.30416 15.2683C1.99999 15.1308 1.69916 14.8992 1.69916 14.6192C1.69916 14.4233 1.83082 14.2525 2.02499 14.2175C4.22832 13.815 5.16332 11.7133 5.29332 11.4425C5.40332 11.2125 5.42749 11.0258 5.36916 10.8767C5.24999 10.5908 4.78249 10.4492 4.47499 10.3475C4.38749 10.3192 3.36166 10.0367 3.36166 9.41667C3.36166 9.21667 3.53249 8.93917 3.84666 8.80833C3.97034 8.76029 4.1015 8.73434 4.23416 8.73167Z" fill="#041516"/>
</svg>
