<svg width="20" height="20" viewBox="0 0 20 20" fill="none" xmlns="http://www.w3.org/2000/svg">
<g clip-path="url(#clip0_95_1945)">
<path d="M18.4683 4.71327C17.8321 4.99468 17.1574 5.1795 16.4666 5.26161C17.1948 4.82613 17.7397 4.14078 18 3.33327C17.3166 3.73994 16.5675 4.02494 15.7866 4.17911C15.2622 3.61792 14.5669 3.24574 13.8091 3.12043C13.0513 2.99511 12.2733 3.12368 11.596 3.48615C10.9188 3.84862 10.3803 4.42468 10.0642 5.12477C9.74818 5.82486 9.67227 6.60976 9.84832 7.35744C8.46257 7.28798 7.10693 6.92787 5.86939 6.30049C4.63185 5.67311 3.54009 4.79248 2.66498 3.71577C2.35522 4.24781 2.19245 4.85263 2.19332 5.46827C2.19332 6.6766 2.80832 7.74411 3.74332 8.36911C3.18999 8.35169 2.64884 8.20226 2.16498 7.93327V7.9766C2.16515 8.78136 2.44362 9.56129 2.95319 10.1842C3.46275 10.807 4.17205 11.2345 4.96082 11.3941C4.44716 11.5333 3.90857 11.5538 3.38582 11.4541C3.60821 12.1468 4.04166 12.7526 4.62548 13.1867C5.2093 13.6208 5.91426 13.8614 6.64165 13.8749C5.91872 14.4427 5.09096 14.8624 4.20572 15.1101C3.32047 15.3577 2.39509 15.4285 1.48248 15.3183C3.07556 16.3428 4.93006 16.8867 6.82415 16.8849C13.235 16.8849 16.7408 11.5741 16.7408 6.96827C16.7408 6.81827 16.7366 6.66661 16.73 6.51827C17.4124 6.02508 18.0013 5.41412 18.4691 4.71411L18.4683 4.71327Z" fill="#041516"/>
</g>
<defs>
<clipPath id="clip0_95_1945">
<rect width="20" height="20" fill="white"/>
</clipPath>
</defs>
</svg>
