<svg width="20" height="20" viewBox="0 0 20 20" fill="none" xmlns="http://www.w3.org/2000/svg">
<path d="M15.4783 11.4258C15.676 11.4232 15.8648 11.3436 16.0046 11.2038C16.1444 11.064 16.2241 10.8752 16.2266 10.6775C16.2266 10.2625 15.8941 9.92917 15.4783 9.92917C15.0625 9.92917 14.73 10.2625 14.73 10.6775C14.73 11.0942 15.0633 11.4258 15.4783 11.4258ZM11.7908 11.4258C11.9885 11.4232 12.1773 11.3436 12.3171 11.2038C12.4569 11.064 12.5366 10.8752 12.5391 10.6775C12.5391 10.2625 12.2058 9.92917 11.7908 9.92917C11.3741 9.92917 11.0425 10.2625 11.0425 10.6775C11.0425 11.0942 11.375 11.4258 11.7908 11.4258ZM17.2633 15.6258C17.2099 15.6555 17.1673 15.7013 17.1415 15.7567C17.1158 15.8121 17.1082 15.8742 17.12 15.9342C17.12 15.9742 17.12 16.015 17.1408 16.0567C17.2225 16.4042 17.3858 16.9575 17.3858 16.9783C17.3858 17.0392 17.4066 17.08 17.4066 17.1217C17.4066 17.1458 17.4019 17.1697 17.3926 17.192C17.3833 17.2143 17.3698 17.2346 17.3527 17.2516C17.3355 17.2686 17.3152 17.2821 17.2929 17.2913C17.2706 17.3004 17.2466 17.3051 17.2225 17.305C17.1808 17.305 17.1608 17.285 17.12 17.265L15.9125 16.5683C15.8243 16.5198 15.7263 16.4919 15.6258 16.4867C15.565 16.4867 15.5033 16.4867 15.4625 16.5067C14.8891 16.6708 14.2958 16.7525 13.6616 16.7525C10.6116 16.7525 8.15581 14.705 8.15581 12.165C8.15581 9.62583 10.6116 7.5775 13.6616 7.5775C16.7108 7.5775 19.1666 9.62583 19.1666 12.165C19.1666 13.5375 18.43 14.7867 17.2633 15.6267V15.6258ZM13.8941 6.74917C13.8164 6.74658 13.7386 6.74519 13.6608 6.745C10.1825 6.745 7.32248 9.12833 7.32248 12.1658C7.32248 12.6275 7.38915 13.0742 7.51248 13.4992H7.43831C6.71019 13.4918 5.9862 13.3887 5.28498 13.1925C5.22331 13.1717 5.16165 13.1717 5.09998 13.1717C4.97682 13.1743 4.85659 13.2097 4.75165 13.2742L3.29498 14.1117C3.25331 14.1325 3.21248 14.1533 3.17165 14.1533C3.11217 14.1527 3.05532 14.1288 3.01327 14.0867C2.97121 14.0447 2.9473 13.9878 2.94665 13.9283C2.94665 13.8667 2.96665 13.8258 2.98748 13.7642C3.00748 13.7442 3.19248 13.0692 3.29498 12.6608C3.29498 12.6192 3.31498 12.5583 3.31498 12.5175C3.31475 12.4461 3.29801 12.3756 3.26607 12.3117C3.23412 12.2479 3.18783 12.1922 3.13081 12.1492C1.71498 11.1467 0.833313 9.655 0.833313 7.99833C0.833313 4.95417 3.80831 2.5 7.45831 2.5C10.5958 2.5 13.2333 4.3075 13.8941 6.74833V6.74917ZM9.59915 7.0975C10.0766 7.0975 10.4541 6.7 10.4541 6.2425C10.4541 5.765 10.0766 5.3875 9.59915 5.3875C9.12165 5.3875 8.74415 5.765 8.74415 6.2425C8.74415 6.72 9.12165 7.0975 9.59915 7.0975ZM5.21581 7.0975C5.69331 7.0975 6.07165 6.7 6.07165 6.2425C6.07165 5.765 5.69331 5.3875 5.21581 5.3875C4.73915 5.3875 4.36081 5.765 4.36081 6.2425C4.36081 6.72 4.73915 7.0975 5.21581 7.0975Z" fill="#041516"/>
</svg>
