<svg width="20" height="20" viewBox="0 0 20 20" fill="none" xmlns="http://www.w3.org/2000/svg">
<path d="M17.9525 5.41504C18.3334 6.90004 18.3334 10 18.3334 10C18.3334 10 18.3334 13.1 17.9525 14.585C17.7409 15.4059 17.1217 16.0517 16.3375 16.27C14.9134 16.6667 10 16.6667 10 16.6667C10 16.6667 5.08919 16.6667 3.66252 16.27C2.87502 16.0484 2.25669 15.4034 2.04752 14.585C1.66669 13.1 1.66669 10 1.66669 10C1.66669 10 1.66669 6.90004 2.04752 5.41504C2.25919 4.59421 2.87835 3.94837 3.66252 3.73004C5.08919 3.33337 10 3.33337 10 3.33337C10 3.33337 14.9134 3.33337 16.3375 3.73004C17.125 3.95171 17.7434 4.59671 17.9525 5.41504ZM8.33335 12.9167L13.3334 10L8.33335 7.08337V12.9167Z" fill="#041516"/>
</svg>
