<svg width="43" height="48" viewBox="0 0 43 48" fill="none" xmlns="http://www.w3.org/2000/svg">
<path fill-rule="evenodd" clip-rule="evenodd" d="M5.25238 1C3.58351 2.67404 2.26072 4.6604 1.35952 6.84566C0.458316 9.03092 -0.00364045 11.3723 2.16029e-05 13.7361C0.00368366 16.0999 0.472893 18.4398 1.38086 20.6222C2.28883 22.8047 3.61777 24.787 5.29181 26.4558L11.5442 20.184V10H14.2803L5.25238 1ZM31.5442 20.726V10H28.2802L37.2524 1C38.9264 2.66887 40.2554 4.65112 41.1633 6.83357C42.0713 9.01603 42.5405 11.356 42.5442 13.7197C42.5478 16.0835 42.0859 18.4249 41.1847 20.6102C40.2835 22.7954 38.9607 24.7818 37.2918 26.4558L31.5442 20.726Z" fill="#FFE68F" fill-opacity="0.8"/>
<path d="M10.9574 24H30.5319L32 48H9L10.9574 24Z" fill="#F6F7F9"/>
<path d="M18.6326 2.49394C18.6326 2.49394 19.0846 1 20.5325 1C21.9152 1 22.3774 2.51211 22.3774 2.51211" fill="#F6F7F9"/>
<path d="M18.6326 2.49394C18.6326 2.49394 19.0846 1 20.5325 1C21.9152 1 22.3774 2.51211 22.3774 2.51211" stroke="white" stroke-width="0.2" stroke-linejoin="round"/>
<path d="M33.9989 12.7376C33.6466 11.1528 31.2254 2.45357 20.506 2.393C9.78666 2.33244 7.35322 11.3647 7.005 12.9758C6.99818 13.0057 6.99834 13.0368 7.00547 13.0667C7.0126 13.0966 7.02651 13.1245 7.04615 13.1482C7.06578 13.172 7.09062 13.191 7.11878 13.2038C7.14694 13.2166 7.17767 13.2228 7.20864 13.2221H7.95802C8.00836 13.2218 8.05703 13.24 8.09463 13.2731C8.13224 13.3063 8.15611 13.3521 8.16165 13.4018L9.52601 24.8022C9.53154 24.8518 9.55542 24.8976 9.59303 24.9308C9.63063 24.9639 9.6793 24.9821 9.72964 24.9818H31.3496C31.4003 24.9821 31.4492 24.9636 31.4868 24.93C31.5245 24.8964 31.5482 24.8501 31.5532 24.8001L32.8504 13.1777C32.8555 13.1277 32.8791 13.0814 32.9168 13.0478C32.9544 13.0142 33.0034 12.9957 33.054 12.996H33.7973C33.8294 12.9969 33.8613 12.9903 33.8904 12.9767C33.9194 12.9631 33.9448 12.9429 33.9645 12.9177C33.9842 12.8925 33.9975 12.863 34.0035 12.8317C34.0095 12.8004 34.0079 12.7681 33.9989 12.7376ZM15.7206 23.0195C15.7206 23.0731 15.6991 23.1244 15.6609 23.1623C15.6228 23.2001 15.571 23.2214 15.517 23.2214H12.1794C12.1254 23.2214 12.0736 23.2001 12.0354 23.1623C11.9972 23.1244 11.9757 23.0731 11.9757 23.0195V13.2382C11.9757 13.1847 11.9972 13.1333 12.0354 13.0955C12.0736 13.0576 12.1254 13.0363 12.1794 13.0363H15.517C15.571 13.0363 15.6228 13.0576 15.6609 13.0955C15.6991 13.1333 15.7206 13.1847 15.7206 13.2382V23.0195ZM22.3774 23.0195C22.3774 23.0731 22.356 23.1244 22.3178 23.1623C22.2796 23.2001 22.2278 23.2214 22.1738 23.2214H18.8362C18.7822 23.2214 18.7304 23.2001 18.6922 23.1623C18.654 23.1244 18.6326 23.0731 18.6326 23.0195V13.2382C18.6326 13.1847 18.654 13.1333 18.6922 13.0955C18.7304 13.0576 18.7822 13.0363 18.8362 13.0363H22.1738C22.2278 13.0363 22.2796 13.0576 22.3178 13.0955C22.356 13.1333 22.3774 13.1847 22.3774 13.2382V23.0195ZM29.0343 23.0195C29.0343 23.0731 29.0128 23.1244 28.9746 23.1623C28.9364 23.2001 28.8846 23.2214 28.8306 23.2214H25.493C25.439 23.2214 25.3872 23.2001 25.3491 23.1623C25.3109 23.1244 25.2894 23.0731 25.2894 23.0195V13.2382C25.2894 13.1847 25.3109 13.1333 25.3491 13.0955C25.3872 13.0576 25.439 13.0363 25.493 13.0363H28.8306C28.8846 13.0363 28.9364 13.0576 28.9746 13.0955C29.0128 13.1333 29.0343 13.1847 29.0343 13.2382V23.0195Z" fill="#F6F7F9"/>
</svg>
