<svg width="18" height="18" viewBox="0 0 18 18" fill="none" xmlns="http://www.w3.org/2000/svg">
<path d="M9 12.75C11.0711 12.75 12.75 11.0711 12.75 9C12.75 6.92893 11.0711 5.25 9 5.25C6.92893 5.25 5.25 6.92893 5.25 9C5.25 11.0711 6.92893 12.75 9 12.75Z" fill="#F6F7F9" stroke="#F6F7F9" stroke-width="2" stroke-linecap="round" stroke-linejoin="round"/>
<path d="M8.65 3C8.65 3.1933 8.8067 3.35 9 3.35C9.1933 3.35 9.35 3.1933 9.35 3H8.65ZM9.35 1.5C9.35 1.3067 9.1933 1.15 9 1.15C8.8067 1.15 8.65 1.3067 8.65 1.5H9.35ZM9.35 15C9.35 14.8067 9.1933 14.65 9 14.65C8.8067 14.65 8.65 14.8067 8.65 15H9.35ZM8.65 16.5C8.65 16.6933 8.8067 16.85 9 16.85C9.1933 16.85 9.35 16.6933 9.35 16.5H8.65ZM9.35 3V1.5H8.65V3H9.35ZM8.65 15V16.5H9.35V15H8.65Z" fill="#F6F7F9"/>
<path d="M4.56317 5.05815C4.69986 5.19483 4.92146 5.19483 5.05815 5.05815C5.19483 4.92146 5.19483 4.69986 5.05815 4.56317L4.56317 5.05815ZM3.99749 3.50251C3.8608 3.36583 3.6392 3.36583 3.50251 3.50251C3.36583 3.6392 3.36583 3.8608 3.50251 3.99749L3.99749 3.50251ZM13.5434 13.0485C13.4067 12.9118 13.1851 12.9118 13.0485 13.0485C12.9118 13.1851 12.9118 13.4067 13.0485 13.5434L13.5434 13.0485ZM14.1091 14.6041C14.2458 14.7408 14.4674 14.7408 14.6041 14.6041C14.7408 14.4674 14.7408 14.2458 14.6041 14.1091L14.1091 14.6041ZM5.05815 4.56317L3.99749 3.50251L3.50251 3.99749L4.56317 5.05815L5.05815 4.56317ZM13.0485 13.5434L14.1091 14.6041L14.6041 14.1091L13.5434 13.0485L13.0485 13.5434Z" fill="#F6F7F9"/>
<path d="M3 9.35C3.1933 9.35 3.35 9.1933 3.35 9C3.35 8.8067 3.1933 8.65 3 8.65V9.35ZM1.5 8.65C1.3067 8.65 1.15 8.8067 1.15 9C1.15 9.1933 1.3067 9.35 1.5 9.35V8.65ZM15 8.65C14.8067 8.65 14.65 8.8067 14.65 9C14.65 9.1933 14.8067 9.35 15 9.35V8.65ZM16.5 9.35C16.6933 9.35 16.85 9.1933 16.85 9C16.85 8.8067 16.6933 8.65 16.5 8.65V9.35ZM3 8.65H1.5V9.35H3V8.65ZM15 9.35H16.5V8.65H15V9.35Z" fill="#F6F7F9"/>
<path d="M13.0484 4.56317C12.9117 4.69986 12.9117 4.92146 13.0484 5.05815C13.1851 5.19483 13.4067 5.19483 13.5434 5.05815L13.0484 4.56317ZM14.604 3.99749C14.7407 3.8608 14.7407 3.6392 14.604 3.50251C14.4673 3.36583 14.2457 3.36583 14.1091 3.50251L14.604 3.99749ZM5.05809 13.5434C5.19477 13.4067 5.19477 13.1851 5.05809 13.0485C4.9214 12.9118 4.6998 12.9118 4.56311 13.0485L5.05809 13.5434ZM3.50245 14.1091C3.36577 14.2458 3.36577 14.4674 3.50245 14.6041C3.63914 14.7408 3.86074 14.7408 3.99743 14.6041L3.50245 14.1091ZM13.5434 5.05815L14.604 3.99749L14.1091 3.50251L13.0484 4.56317L13.5434 5.05815ZM4.56311 13.0485L3.50245 14.1091L3.99743 14.6041L5.05809 13.5434L4.56311 13.0485Z" fill="#F6F7F9"/>
</svg>
